<mxfile host="app.diagrams.net" modified="2024-03-20T00:36:23.799Z" agent="Mozilla/5.0 (Windows NT 10.0; Win64; x64) AppleWebKit/537.36 (KHTML, like Gecko) Chrome/122.0.0.0 Safari/537.36" etag="dGoS6sJXYbqMIBUWBghA" version="24.0.7" type="github">
  <diagram name="Halaman-1" id="eXjfqpLsTZoqwnnKGAD3">
    <mxGraphModel dx="1500" dy="861" grid="1" gridSize="10" guides="1" tooltips="1" connect="1" arrows="1" fold="1" page="1" pageScale="1" pageWidth="827" pageHeight="1169" math="0" shadow="0">
      <root>
        <mxCell id="0" />
        <mxCell id="1" parent="0" />
        <mxCell id="0VCOnaTmEuJsGlPt2nqW-14" style="rounded=0;orthogonalLoop=1;jettySize=auto;html=1;exitX=0.5;exitY=0;exitDx=0;exitDy=0;entryX=0.5;entryY=1;entryDx=0;entryDy=0;endArrow=none;endFill=0;" edge="1" parent="1" source="0VCOnaTmEuJsGlPt2nqW-1" target="0VCOnaTmEuJsGlPt2nqW-4">
          <mxGeometry relative="1" as="geometry" />
        </mxCell>
        <mxCell id="0VCOnaTmEuJsGlPt2nqW-15" style="rounded=0;orthogonalLoop=1;jettySize=auto;html=1;exitX=0.5;exitY=0;exitDx=0;exitDy=0;entryX=0.5;entryY=1;entryDx=0;entryDy=0;endArrow=none;endFill=0;" edge="1" parent="1" source="0VCOnaTmEuJsGlPt2nqW-1" target="0VCOnaTmEuJsGlPt2nqW-10">
          <mxGeometry relative="1" as="geometry" />
        </mxCell>
        <mxCell id="0VCOnaTmEuJsGlPt2nqW-16" style="rounded=0;orthogonalLoop=1;jettySize=auto;html=1;exitX=0.5;exitY=0;exitDx=0;exitDy=0;entryX=0.5;entryY=1;entryDx=0;entryDy=0;endArrow=none;endFill=0;" edge="1" parent="1" source="0VCOnaTmEuJsGlPt2nqW-1" target="0VCOnaTmEuJsGlPt2nqW-11">
          <mxGeometry relative="1" as="geometry" />
        </mxCell>
        <mxCell id="0VCOnaTmEuJsGlPt2nqW-1" value="Mahasiswa" style="rounded=0;whiteSpace=wrap;html=1;" vertex="1" parent="1">
          <mxGeometry x="340" y="240" width="120" height="60" as="geometry" />
        </mxCell>
        <mxCell id="0VCOnaTmEuJsGlPt2nqW-21" style="rounded=0;orthogonalLoop=1;jettySize=auto;html=1;exitX=0.5;exitY=0;exitDx=0;exitDy=0;entryX=0.5;entryY=1;entryDx=0;entryDy=0;endArrow=none;endFill=0;" edge="1" parent="1" source="0VCOnaTmEuJsGlPt2nqW-2" target="0VCOnaTmEuJsGlPt2nqW-17">
          <mxGeometry relative="1" as="geometry" />
        </mxCell>
        <mxCell id="0VCOnaTmEuJsGlPt2nqW-22" style="rounded=0;orthogonalLoop=1;jettySize=auto;html=1;exitX=0.5;exitY=0;exitDx=0;exitDy=0;entryX=0.5;entryY=1;entryDx=0;entryDy=0;endArrow=none;endFill=0;" edge="1" parent="1" source="0VCOnaTmEuJsGlPt2nqW-2" target="0VCOnaTmEuJsGlPt2nqW-18">
          <mxGeometry relative="1" as="geometry" />
        </mxCell>
        <mxCell id="0VCOnaTmEuJsGlPt2nqW-23" style="rounded=0;orthogonalLoop=1;jettySize=auto;html=1;exitX=0.5;exitY=0;exitDx=0;exitDy=0;entryX=0.5;entryY=1;entryDx=0;entryDy=0;endArrow=none;endFill=0;" edge="1" parent="1" source="0VCOnaTmEuJsGlPt2nqW-2" target="0VCOnaTmEuJsGlPt2nqW-19">
          <mxGeometry relative="1" as="geometry" />
        </mxCell>
        <mxCell id="0VCOnaTmEuJsGlPt2nqW-24" style="rounded=0;orthogonalLoop=1;jettySize=auto;html=1;exitX=0.5;exitY=0;exitDx=0;exitDy=0;entryX=0.5;entryY=1;entryDx=0;entryDy=0;endArrow=none;endFill=0;" edge="1" parent="1" source="0VCOnaTmEuJsGlPt2nqW-2" target="0VCOnaTmEuJsGlPt2nqW-20">
          <mxGeometry relative="1" as="geometry" />
        </mxCell>
        <mxCell id="0VCOnaTmEuJsGlPt2nqW-2" value="Buku" style="rounded=0;whiteSpace=wrap;html=1;" vertex="1" parent="1">
          <mxGeometry x="1010" y="240" width="120" height="60" as="geometry" />
        </mxCell>
        <mxCell id="0VCOnaTmEuJsGlPt2nqW-3" value="NIM" style="ellipse;whiteSpace=wrap;html=1;" vertex="1" parent="1">
          <mxGeometry x="100" y="100" width="120" height="80" as="geometry" />
        </mxCell>
        <mxCell id="0VCOnaTmEuJsGlPt2nqW-4" value="Nama" style="ellipse;whiteSpace=wrap;html=1;" vertex="1" parent="1">
          <mxGeometry x="250" y="40" width="120" height="80" as="geometry" />
        </mxCell>
        <mxCell id="0VCOnaTmEuJsGlPt2nqW-10" value="No Hp" style="ellipse;whiteSpace=wrap;html=1;" vertex="1" parent="1">
          <mxGeometry x="414" y="40" width="120" height="80" as="geometry" />
        </mxCell>
        <mxCell id="0VCOnaTmEuJsGlPt2nqW-11" value="Alamat" style="ellipse;whiteSpace=wrap;html=1;" vertex="1" parent="1">
          <mxGeometry x="550" y="100" width="120" height="80" as="geometry" />
        </mxCell>
        <mxCell id="0VCOnaTmEuJsGlPt2nqW-12" value="" style="endArrow=none;html=1;rounded=0;exitX=0.5;exitY=0;exitDx=0;exitDy=0;entryX=0.5;entryY=1;entryDx=0;entryDy=0;" edge="1" parent="1" source="0VCOnaTmEuJsGlPt2nqW-1" target="0VCOnaTmEuJsGlPt2nqW-3">
          <mxGeometry width="50" height="50" relative="1" as="geometry">
            <mxPoint x="390" y="130" as="sourcePoint" />
            <mxPoint x="440" y="80" as="targetPoint" />
          </mxGeometry>
        </mxCell>
        <mxCell id="0VCOnaTmEuJsGlPt2nqW-17" value="id_buku" style="ellipse;whiteSpace=wrap;html=1;" vertex="1" parent="1">
          <mxGeometry x="780" y="60" width="120" height="80" as="geometry" />
        </mxCell>
        <mxCell id="0VCOnaTmEuJsGlPt2nqW-18" value="judul_buku" style="ellipse;whiteSpace=wrap;html=1;" vertex="1" parent="1">
          <mxGeometry x="930" y="10" width="120" height="80" as="geometry" />
        </mxCell>
        <mxCell id="0VCOnaTmEuJsGlPt2nqW-19" value="penulis" style="ellipse;whiteSpace=wrap;html=1;" vertex="1" parent="1">
          <mxGeometry x="1080" y="10" width="120" height="80" as="geometry" />
        </mxCell>
        <mxCell id="0VCOnaTmEuJsGlPt2nqW-20" value="penerbit" style="ellipse;whiteSpace=wrap;html=1;" vertex="1" parent="1">
          <mxGeometry x="1220" y="60" width="120" height="80" as="geometry" />
        </mxCell>
        <mxCell id="0VCOnaTmEuJsGlPt2nqW-29" style="rounded=0;orthogonalLoop=1;jettySize=auto;html=1;exitX=0.5;exitY=0;exitDx=0;exitDy=0;entryX=0.5;entryY=1;entryDx=0;entryDy=0;endArrow=none;endFill=0;" edge="1" parent="1" source="0VCOnaTmEuJsGlPt2nqW-25" target="0VCOnaTmEuJsGlPt2nqW-26">
          <mxGeometry relative="1" as="geometry" />
        </mxCell>
        <mxCell id="0VCOnaTmEuJsGlPt2nqW-30" style="rounded=0;orthogonalLoop=1;jettySize=auto;html=1;exitX=0.5;exitY=0;exitDx=0;exitDy=0;entryX=0.5;entryY=1;entryDx=0;entryDy=0;endArrow=none;endFill=0;" edge="1" parent="1" source="0VCOnaTmEuJsGlPt2nqW-25" target="0VCOnaTmEuJsGlPt2nqW-27">
          <mxGeometry relative="1" as="geometry" />
        </mxCell>
        <mxCell id="0VCOnaTmEuJsGlPt2nqW-31" style="rounded=0;orthogonalLoop=1;jettySize=auto;html=1;exitX=0.5;exitY=0;exitDx=0;exitDy=0;entryX=0.5;entryY=1;entryDx=0;entryDy=0;endArrow=none;endFill=0;" edge="1" parent="1" source="0VCOnaTmEuJsGlPt2nqW-25" target="0VCOnaTmEuJsGlPt2nqW-28">
          <mxGeometry relative="1" as="geometry" />
        </mxCell>
        <mxCell id="0VCOnaTmEuJsGlPt2nqW-25" value="Petugas&lt;div&gt;Perpustakaan&lt;/div&gt;" style="rounded=0;whiteSpace=wrap;html=1;" vertex="1" parent="1">
          <mxGeometry x="1610" y="240" width="120" height="60" as="geometry" />
        </mxCell>
        <mxCell id="0VCOnaTmEuJsGlPt2nqW-26" value="NIP" style="ellipse;whiteSpace=wrap;html=1;" vertex="1" parent="1">
          <mxGeometry x="1480" y="60" width="120" height="80" as="geometry" />
        </mxCell>
        <mxCell id="0VCOnaTmEuJsGlPt2nqW-27" value="Nama" style="ellipse;whiteSpace=wrap;html=1;" vertex="1" parent="1">
          <mxGeometry x="1620" y="10" width="120" height="80" as="geometry" />
        </mxCell>
        <mxCell id="0VCOnaTmEuJsGlPt2nqW-28" value="No_telpon" style="ellipse;whiteSpace=wrap;html=1;" vertex="1" parent="1">
          <mxGeometry x="1760" y="60" width="120" height="80" as="geometry" />
        </mxCell>
      </root>
    </mxGraphModel>
  </diagram>
</mxfile>
